<svg xmlns="http://www.w3.org/2000/svg" id="Layer_1" data-name="Layer 1" viewBox="0 0 491.08 248.83"><defs><style>.cls-1{fill:none;}.cls-2{fill:#18799b;}.cls-3{fill:#fff;}</style></defs><path class="cls-1" d="M475.35,218.93a13.92,13.92,0,0,0-2.85-5.76,14.93,14.93,0,0,0-2.72-2.26c-1.64-1.19-3.25-2.35-3.95-3.73a19.8,19.8,0,0,1-1.33-5.73c-.13-1-.26-1.95-.44-2.89a71.21,71.21,0,0,1-.91-7.55,54.87,54.87,0,0,0-.68-5.81,12.37,12.37,0,0,0-4.32.33l-.29.06-.55.12c.13,1,.28,2.17.44,3.33.8,6,2,15.1-.71,20.24l0,0-.2.3-.17.3h0c-5,7.46-4.83,12.92-4,19.8.18,1.52.37,3.07.53,4.63.43,4.39.89,8.73,1.35,12.9l0,.21,23.25-5.18c-.15-1.75-.28-3.49-.4-5.2A135.51,135.51,0,0,0,475.35,218.93Z" transform="translate(-150.25 -168.01)"></path><path class="cls-1" d="M402.23,208.14l.34,0Z" transform="translate(-150.25 -168.01)"></path><path class="cls-1" d="M422.85,227.59l-11.21,4,6.94,15.2A34.26,34.26,0,0,0,422.85,227.59Z" transform="translate(-150.25 -168.01)"></path><polygon class="cls-2" points="298.7 110.81 302.34 109.98 301.37 105.78 297.69 106.63 298.7 110.81"></polygon><polygon class="cls-2" points="295.95 111.44 294.94 107.27 285.85 109.39 289.67 112.9 295.95 111.44"></polygon><polygon class="cls-2" points="300.73 103.04 299.79 98.98 296.06 99.85 297.03 103.89 300.73 103.04"></polygon><rect class="cls-2" x="453.21" y="265.83" width="4.31" height="4.16" transform="translate(-199.11 -57.87) rotate(-13.1)"></rect><polygon class="cls-2" points="296.61 114.19 292.19 115.21 294.26 117.1 299.56 116.17 297.17 116.57 296.61 114.19"></polygon><polygon class="cls-2" points="305.09 109.34 309.27 108.37 308.3 104.19 304.12 105.15 305.09 109.34"></polygon><polygon class="cls-2" points="299.36 113.55 299.99 116.09 303.61 115.46 302.97 112.72 299.36 113.55"></polygon><polygon class="cls-2" points="305.73 112.08 306.41 114.97 310.61 114.23 309.9 111.12 305.73 112.08"></polygon><polygon class="cls-2" points="293.31 100.48 284.63 102.48 284 99.73 299.16 96.24 298.13 91.79 300.87 91.15 301.9 95.6 306.1 94.64 304.12 86.05 306.87 85.42 308.85 94 328.68 89.42 329.31 92.17 309.48 96.75 310.42 100.8 319.8 98.64 320.43 101.39 311.06 103.55 312.02 107.73 331.75 103.19 332.38 105.94 312.66 110.49 313.42 113.73 352.07 106.93 369.16 68.44 266.22 91.38 283.3 107.05 294.28 104.53 293.31 100.48"></polygon><path class="cls-2" d="M517.82,202.56l-45.67.6a5.62,5.62,0,0,0,1.91,2.77l1.11.79,39.51-.45-1.88,28.2,3.51-.78Z" transform="translate(-150.25 -168.01)"></path><path class="cls-2" d="M444.12,220a9,9,0,0,1,1.79-4.53l-21.28,7.58a26.63,26.63,0,0,1,1.12,3.5Z" transform="translate(-150.25 -168.01)"></path><path class="cls-2" d="M419,247.66a19.74,19.74,0,0,1-1.84,1.46c.53-.77,1-1.55,1.44-2.33l-6.94-15.2,11.21-4c-.09-1.33-.23-2.59-.41-3.76l-16.74,6,11.78,25.93,4.7-1.05Z" transform="translate(-150.25 -168.01)"></path><path class="cls-2" d="M454.58,247.23c-.46-4.17-.92-8.51-1.35-12.9-.16-1.56-.35-3.11-.53-4.63-.84-6.88-1-12.34,4-19.8h0l.17-.3.2-.3,0,0c2.7-5.14,1.51-14.2.71-20.24-.16-1.16-.31-2.28-.44-3.33l.55-.12.29-.06a12.37,12.37,0,0,1,4.32-.33,54.87,54.87,0,0,1,.68,5.81,71.21,71.21,0,0,0,.91,7.55c.18.94.31,1.91.44,2.89a19.8,19.8,0,0,0,1.33,5.73c.7,1.38,2.31,2.54,3.95,3.73a14.93,14.93,0,0,1,2.72,2.26,13.92,13.92,0,0,1,2.85,5.76,135.51,135.51,0,0,1,2.1,18.13c.12,1.71.25,3.45.4,5.2l3.4-.76c-.15-1.95-.3-3.9-.43-5.82v-.23c-.46-6.67-.89-13-2.22-18.61a16.58,16.58,0,0,0-2.61-5.55,16.24,16.24,0,0,0-3.53-3.06l-.12-.09c-1.44-1-2.93-2.09-3.37-3.06-1.65-3.6-1.92-8.26-2.19-12.88a45.35,45.35,0,0,0-1.15-9.3l-.2-.69-.77-.15a19.93,19.93,0,0,0-6.76.34l-.24,0a13.71,13.71,0,0,0-2.93.93l-.78.37,0,.79c.09,2.12.34,4.59.61,7.29.58,5.78,1.23,12.34-.2,16.35v0c-3.75,4.65-5.94,9.33-6,12.85-.09,5.56.78,11.85,1.71,18.51.32,2.37.74,5.48,1.09,8.56v.07l3.42-.76Zm.19-38.95,1.81,1.14-1.84-1.1Z" transform="translate(-150.25 -168.01)"></path><path class="cls-2" d="M454.77,208.28l0,0,1.84,1.1Z" transform="translate(-150.25 -168.01)"></path><path class="cls-2" d="M408.45,210.61c-.74,5.58-5.66,20-12.15,20.55-5.14.43-8.09-6.79-5.25-12.84,4.35-9.25,18.41-9.66,18.29-10.52s-10.4-.35-19.51-3.54c-8.43-2.95-4.81-10.44,4-8,11.66,3.21,16.65,9.94,17.08,9.6s-4.8-4.89-7.54-15.21,2.07-14,7-5.8c3,5,2.77,10.53,1.88,17.08,1.23-2.24,3.85-11.18.63-19.82-2.75-7.42-9.79-11.56-12.79-6.76-2.76,4.42-4.36,13.81,6.6,25.92,0,0-9.14-8.71-21.83-10.06-8.19-.87-12.05,8.39-4.26,13.37,6.48,4.15,19.38,3.7,21.63,3.58l.34,0-.34,0c-2.24.15-15,1.46-18.25,11.63-2.72,8.46,5.84,19.07,11.45,18C403.88,236.24,410,215.53,408.45,210.61Z" transform="translate(-150.25 -168.01)"></path><path class="cls-2" d="M454.55,173.07c24-5.15,47.18,7.25,52,27.69a32.75,32.75,0,0,0,4-.19c-4.94-22.92-30.4-37-56.79-31.31-20.66,4.43-35.85,19.63-39.13,37a6.71,6.71,0,0,1,4.21-1.17C422.81,190.39,436.57,176.92,454.55,173.07Z" transform="translate(-150.25 -168.01)"></path><path class="cls-2" d="M422.5,212.38c10.68,2.69,19-.52,22.07-16.6C443.48,199.34,436.6,211.68,422.5,212.38Z" transform="translate(-150.25 -168.01)"></path><path class="cls-2" d="M444.57,195.78a2.47,2.47,0,0,0,.16-.83C444.68,195.23,444.63,195.51,444.57,195.78Z" transform="translate(-150.25 -168.01)"></path><path class="cls-2" d="M419.94,214.8a37.77,37.77,0,0,1,2.5,9l2.19-.78A36.76,36.76,0,0,0,419.94,214.8Z" transform="translate(-150.25 -168.01)"></path><path class="cls-2" d="M418.58,246.79l.4.87a21.14,21.14,0,0,0,6.77-21.11l-2.9,1A34.26,34.26,0,0,1,418.58,246.79Z" transform="translate(-150.25 -168.01)"></path><path class="cls-2" d="M417.14,249.12a19.74,19.74,0,0,0,1.84-1.46l-.4-.87C418.14,247.57,417.67,248.35,417.14,249.12Z" transform="translate(-150.25 -168.01)"></path><path class="cls-2" d="M425.75,226.55a26.63,26.63,0,0,0-1.12-3.5l-2.19.78c.18,1.17.32,2.43.41,3.76Z" transform="translate(-150.25 -168.01)"></path><path class="cls-2" d="M413.74,208.73c-1.53,2.1-1.56,4.69,0,5.8s4,.3,5.51-1.79,1.56-4.7.05-5.81S415.27,206.63,413.74,208.73Z" transform="translate(-150.25 -168.01)"></path><path class="cls-2" d="M525.21,231.7l-8.9,2,0,.72a33.88,33.88,0,0,1-3.53.94l.06-.88-31.55,7a2.46,2.46,0,0,0,0,.28l0,.31-3.41.73,0-.4s0-.1,0-.16l-23.25,5.18v.07l-.27.09a27.88,27.88,0,0,1-2.73.83l-.39.09,0-.32-29,6.47.34.74-4.91.59-.13-.28-8.05,1.79L429.56,276l3-.69-18.17-17,106.59-23-17.1,41.51-39.84,6.6.37,1.59L504.68,278Z" transform="translate(-150.25 -168.01)"></path><polygon class="cls-2" points="294.48 118.64 291.08 115.46 289.12 115.92 288.48 113.17 288.6 113.14 284.84 109.62 281.86 110.31 293.2 120.71 304.37 118.75 303.98 117.07 294.48 118.64"></polygon><polygon class="cls-2" points="306.81 116.6 307.2 118.25 311.37 117.52 311 115.91 306.81 116.6"></polygon><polygon class="cls-2" points="299.99 116.09 299.99 116.1 299.56 116.17 294.26 117.1 292.19 115.21 291.08 115.46 294.48 118.64 303.98 117.07 303.61 115.46 299.99 116.09"></polygon><polygon class="cls-2" points="306.41 114.97 306.81 116.6 311 115.91 310.61 114.23 306.41 114.97"></polygon><polygon class="cls-2" points="266.22 91.38 369.16 68.44 352.07 106.93 313.42 113.73 313.81 115.44 353.65 108.84 370.75 67.33 264.17 90.27 282.33 107.27 283.3 107.05 266.22 91.38"></polygon><polygon class="cls-2" points="285.85 109.39 284.84 109.62 288.6 113.14 289.67 112.9 285.85 109.39"></polygon><path class="cls-2" d="M516.27,234.41l0-.72-3.51.78-.06.88A33.88,33.88,0,0,0,516.27,234.41Z" transform="translate(-150.25 -168.01)"></path><polygon class="cls-2" points="272.26 87.4 271.93 86.66 267.22 87.7 267.35 87.98 272.26 87.4"></polygon><path class="cls-2" d="M451.61,248.43a27.88,27.88,0,0,0,2.73-.83l.27-.09v-.07l-3.42.76,0,.32Z" transform="translate(-150.25 -168.01)"></path><path class="cls-2" d="M477.86,242.42l0,.4,3.41-.73,0-.31a2.46,2.46,0,0,1,0-.28l-3.4.76C477.85,242.32,477.86,242.37,477.86,242.42Z" transform="translate(-150.25 -168.01)"></path><polygon class="cls-3" points="299.99 116.1 299.99 116.09 299.56 116.17 299.99 116.1"></polygon><path class="cls-2" d="M220.06,284.76c-5.11,0-10.06-.24-12.93-.24-3.83,0-8.3.24-12.3.24l-.32-2.16L201,282c1.83-.16,2.48-.64,2.55-1.91.16-1.93.33-5.52.33-11.42V252.83c0-6,0-10.06-.17-12.54,0-.94-.31-1.27-.95-1.27-1.52.08-5,.33-7.19.4l.48-2.24c5.26-.56,13.41-1.83,15.24-2.56l.4.25c0,2.94-.31,8.13-.31,18v15.49c0,6,.08,9,.24,11.67.07,1.27.4,1.83,1.84,2l6.46.56Z" transform="translate(-150.25 -168.01)"></path><path class="cls-2" d="M227.42,251.29c3.83,0,6.38,2.92,6.38,6.75A6.39,6.39,0,1,1,221,258a6.51,6.51,0,0,1,6.32-6.75Z" transform="translate(-150.25 -168.01)"></path><path class="cls-2" d="M258.73,234.55c6.87,0,13,4.55,13,11.81a9.47,9.47,0,0,1-2.63,6.62,43.72,43.72,0,0,1-6.15,4.8c9.18,4.87,11,8.94,11,14a12.44,12.44,0,0,1-4.55,9.66,19.14,19.14,0,0,1-12.14,4.22c-9.66,0-15.72-4.7-15.72-12.43a9.78,9.78,0,0,1,2.87-7.19c1.68-1.77,4.39-3.44,7.5-5.52-5.67-3.35-8.37-7-8.37-12.21a12.92,12.92,0,0,1,2.78-8.48c2.48-3,6.47-5.25,12.29-5.25Zm-.24,48.62c5.11,0,8.62-3.28,8.62-8.63s-3.59-8-12.93-12.94c-3.76,2.25-6.39,5.68-6.39,10.47,0,5.59,3.28,11.1,10.62,11.1Zm-1-46.15c-3.75,0-7.74,2.78-7.74,8.22a8.07,8.07,0,0,0,2.87,6.47,43.68,43.68,0,0,0,8.22,4.87c3.43-2.4,5.35-5.27,5.35-9.74,0-5.51-3.11-9.82-8.61-9.82Z" transform="translate(-150.25 -168.01)"></path><path class="cls-2" d="M296.49,234.62a13.82,13.82,0,0,1,10.7,4.73c3.91,4.54,5.58,12.12,5.58,19.94-.08,12.22-3.27,19.24-7.5,22.91a15.5,15.5,0,0,1-9.91,3.43A14.3,14.3,0,0,1,285,281.48c-4.39-4.62-6.15-12.53-6.06-21.07.07-9.26,2.47-17.8,8.14-22.51a14.81,14.81,0,0,1,9.33-3.28Zm-.65,2.4c-2.55,0-4.14,1.28-5.66,4.07-2,3.75-3.2,11.5-3.2,18.69,0,7.5.88,14.36,2.72,18.51,1.36,3,3.44,4.88,6.47,4.88,2.72,0,4.39-1.53,5.91-4.55,1.76-3.68,2.71-10.23,2.71-18.6,0-9-1.12-15.42-2.71-18.77-1.44-2.71-3.19-4.23-6.15-4.23Z" transform="translate(-150.25 -168.01)"></path><path class="cls-2" d="M334.64,234.62a13.84,13.84,0,0,1,10.71,4.73c3.9,4.54,5.58,12.12,5.58,19.94-.08,12.22-3.27,19.24-7.5,22.91a15.49,15.49,0,0,1-9.9,3.43,14.27,14.27,0,0,1-10.37-4.15c-4.4-4.62-6.15-12.53-6.08-21.07.09-9.26,2.48-17.8,8.15-22.51a14.81,14.81,0,0,1,9.34-3.28ZM334,237c-2.56,0-4.15,1.28-5.67,4.07-2,3.75-3.19,11.5-3.19,18.69,0,7.5.88,14.36,2.71,18.51,1.36,3,3.44,4.88,6.46,4.88,2.72,0,4.39-1.53,5.92-4.55,1.75-3.68,2.7-10.23,2.7-18.6,0-9-1.11-15.42-2.7-18.77-1.45-2.71-3.2-4.23-6.16-4.23Z" transform="translate(-150.25 -168.01)"></path><path class="cls-2" d="M479.17,403.65c3.51,0,5.86,2.84,5.86,6.37,0,3.8-2.64,6.34-5.95,6.34s-6-2.54-6-6.34a6.1,6.1,0,0,1,6-6.37Z" transform="translate(-150.25 -168.01)"></path><path class="cls-2" d="M522.21,406.06c-2,6.55-6.71,10.78-14.61,10.78-5.74,0-9.66-1.68-12.62-5.11-2.4-2.87-3.75-7.11-3.75-12.53,0-10.22,6.55-18.69,18-18.69,7.27,0,12.37,3.35,12.37,8.63a3.9,3.9,0,0,1-4.07,4.23,3.16,3.16,0,0,1-2-.56,1.72,1.72,0,0,1-.64-1.67c.08-.8.32-1.69.32-2.48,0-3.58-1.75-5.83-6.22-5.83-6.56,0-9.83,6.86-9.83,15.41,0,4.07.72,7.66,2.24,10.22a9.4,9.4,0,0,0,8.46,4.7c5.35,0,8.15-2.63,10.22-8.22Z" transform="translate(-150.25 -168.01)"></path><path class="cls-2" d="M543.77,380.51c10.62,0,17,7.43,17,17.89,0,11.09-6.56,18.44-17.56,18.44-11.67,0-17.32-7.66-17.32-17.88s6.37-18.45,17.79-18.45Zm-.54,2.4a7.8,7.8,0,0,0-6.88,3.91c-1.43,2.4-2.32,6.3-2.32,10.94,0,4.79.89,9.1,2.32,11.82,1.68,3.18,4.32,4.87,7.51,4.87a7.22,7.22,0,0,0,6.87-4.23c1.19-2.4,2-6.23,2-11.11s-.88-9.17-2.23-11.65a7.82,7.82,0,0,0-7.19-4.55Z" transform="translate(-150.25 -168.01)"></path><path class="cls-2" d="M571.26,395.21c0-4.23-.08-7.59-.24-9.75-.07-1.11-.65-1.28-5-1.28l.17-2.14A57.77,57.77,0,0,0,578,380.83c.16,1.29.4,4.95.48,6.23,2.87-2.95,7.18-6.55,12.93-6.55,4.39,0,6.63,1.93,7.66,3.44a9.82,9.82,0,0,1,1.37,3c2.71-2.63,6.69-6.47,12.92-6.47,5,0,7.51,2.56,8.62,4.57a10.8,10.8,0,0,1,1.13,5.17v21.33c0,1.74.39,1.83,5.19,2.14L628.1,416c-2.47,0-5.5-.24-9-.24S613,416,611,416l.08-2.24c3.67-.15,4.46-.63,4.62-2.07.16-1.92.31-5.35.31-11.57,0-9.91-.07-11-.63-12.22a5.53,5.53,0,0,0-5.43-3.28,9.75,9.75,0,0,0-8.38,5.2,7.22,7.22,0,0,0-.81,3.51V404c0,2.95.09,5.9.17,7.66.15,1.6.88,1.92,5,2.07l-.25,2.24c-2,0-5.66-.24-8.86-.24s-5.81.24-8,.24v-2.24c3.67-.15,4.47-.4,4.62-2.39.18-2.32.24-4.95.24-9.81v-6.31c0-5.35-.06-6.23-.64-7.5-.86-2.08-2.46-3.13-5.1-3.13a9.9,9.9,0,0,0-8.63,5.44,7.25,7.25,0,0,0-.87,3.75v10.47c0,3.18.08,5.58.16,7.41.15,1.6.8,1.92,4.87,2.07l-.32,2.24c-1.92,0-5.74-.24-8.64-.24s-5.9.24-8.29.24v-2.24c4.07-.15,4.8-.4,4.87-2.39s.24-5.11.24-9.58Z" transform="translate(-150.25 -168.01)"></path><path class="cls-2" d="M150.42,262.8c7.55,0,20.72-1,25.87-2.09,0,5.62-.64,16.22-.64,35.5v14.3c8.51-7.54,16.06-11.88,25.38-11.88,10.13,0,16.87,4.5,21.21,11.08,3.7,5.45,5.62,13.66,5.62,22.17,0,24.74-12.85,39.85-36.63,39.85-7.39,0-15.58-2.09-19.6-4.66-2.25,1-6.1,2.89-9.48,4.51l-1.13-.82c0-6.1.32-22.66.32-41.29V291.71c0-12.37-.32-17.51-.47-21.52-.17-2.57-1.61-2.9-10.62-2.9Zm41.29,104.11c14.47,0,20.25-14.77,20.25-33.59,0-8-1.61-15.25-4.66-20.07a14.69,14.69,0,0,0-13-6.9c-7.71,0-13.82,5-17,10.11-1.45,2.25-1.77,4-1.77,20.89,0,18,.81,19.11,2.1,21.52,2.88,5.63,8.34,8,14,8Z" transform="translate(-150.25 -168.01)"></path><path class="cls-2" d="M279,316.78c0-6.91-3.37-13.49-12.53-13.49-9.48,0-13.66,4.82-13.66,11.56a19.51,19.51,0,0,0,.65,4.82,4,4,0,0,1-1.45,3.38,9.65,9.65,0,0,1-5.47,1.61c-3.54,0-7.07-1.93-7.07-7.25,0-8.34,11.74-18.78,29.57-18.78,13.49,0,19.44,5.61,21.69,9a17.66,17.66,0,0,1,2.24,8.52v40.64c0,6.12,1.78,7.23,3.86,7.23,2.41,0,5-3.2,6.59-9.79l4,1.61c-2.25,11.72-8.51,15.9-16.07,15.9-8.35,0-11.56-5-12.37-11.89-7.23,7.71-15.43,11.89-23.13,11.89-12.38,0-19.61-8.51-19.61-19.92,0-6.43,2.58-11.89,9-14.46,11.25-4.66,27.47-9.8,33.74-14.3Zm-27,32.78c0,7.39,3.86,13.66,11.25,13.66s12.05-4.5,14.78-10.61a21.09,21.09,0,0,0,1-6.59V328.18c-4.34,2.42-13,5.95-18.8,9.17-4.82,2.57-8.19,5-8.19,12Z" transform="translate(-150.25 -168.01)"></path><path class="cls-2" d="M356.15,324.17c-.81-12.21-7.55-20.72-17.84-20.72-7.23,0-11.9,4.49-11.9,11.4,0,4.66,2.42,7.23,6.11,9.16,5,2.57,15.27,5.94,21.21,8.84,8.2,3.54,11.57,9.16,11.57,16.39,0,15.9-14.94,22.49-28.75,22.49a59.56,59.56,0,0,1-22.34-4.66c.16-3.69.48-14.46.16-23.46l4-.64a45.94,45.94,0,0,0,2.89,12.7c2.88,7.39,9.31,11.09,17.35,11.09,9,0,14.14-4.67,14.14-11.74,0-3.86-1.61-6.92-5.79-9-5.46-2.57-13.49-5.94-19.11-8.35-8-3.38-12.86-8.67-12.86-17.51,0-13.67,10.93-21.53,24.59-21.53,6.58,0,13.17,2.09,15.58,4.17l1.92-5.46,4.19,1.29a146.5,146.5,0,0,0-1,24.58Z" transform="translate(-150.25 -168.01)"></path><path class="cls-2" d="M368.89,262.8A179.85,179.85,0,0,0,394,260.86c-.18,7.23-.66,20.73-.66,33.91v36.3c7.24-.95,20.08-15.73,24.9-22.8,1-1.45.82-2.41-.95-2.57l-7.23-.65.16-4.18c9.64,0,21.21-.31,31.65-.95l.16,4.16c-8.68,1-11.89,1.94-15.59,5-4.17,3.69-12.52,11.73-18.32,17.67,7.09,10.61,22.34,30.53,27.17,35.51,2.26,2.41,4.49,3.05,8,3.22h5l-.31,4.34c-8,0-19.13.63-24.75,1.92-5.63-8.83-21.06-29.4-24.6-34.22-1.92-2.74-3.2-2.9-5.3-2.58,0,10.94-.15,18.18.32,26.35.16,3.22,1.62,3.86,10.14,4.19l-.33,4.49c-5.62,0-11.09-.48-18.79-.48-8.68,0-12.86.48-16.72.48v-4.49c8.85-.33,10.12-1.28,10.44-4.19.16-2.88.65-12.52.65-25.38V294.44c0-12.53,0-19.76-.32-24.73,0-1.62-.65-2.25-3.38-2.42l-6.43-.15Z" transform="translate(-150.25 -168.01)"></path><path class="cls-2" d="M477.75,371.73c-12.39,0-20.26-4-25.39-10.92-4.5-5.62-6.92-14.79-6.92-24.26,0-19.92,11.41-37.92,33.74-37.92,23.3,0,27.64,18.47,27.47,27.8,0,3.21-.95,5.45-3.37,6.42-2.73,1.13-10.59,1.92-21,2.08-5.62,0-14.13.16-21,0-.34,8.68,1.91,16.39,5,20.9,3.54,5.63,8.67,8.51,16.06,8.51,9.8,0,15.75-4.65,20.09-15.58L506.5,351C501.68,365.47,491.4,371.73,477.75,371.73Zm.31-68.28C467,303.45,462,316.94,461.5,330h13.34a80.18,80.18,0,0,0,14.31-.95c2.09-.49,3.22-2.1,3.22-5.63,0-8.52-3.54-19.92-14.15-19.92Z" transform="translate(-150.25 -168.01)"></path><path class="cls-2" d="M559.8,300.87l-.65,5-21.85,1c0,5.62-.32,12.53-.32,24.9,0,14.46.16,22.66.8,27.15.64,4.19,3.38,6.43,7.38,6.43,7.24,0,11.11-5.61,13.19-13.65h1.93l1.76,5.79c-4,9.47-12,14.29-22.49,14.29-7.23,0-12-2.25-14.46-5.62-1.92-2.41-2.73-5.46-2.73-10.12,0-12.86.49-36.8.63-49.17l-11.09-1,.81-5h10.46v-18c5.77-2.25,11.24-5.31,13.65-7.39l1.45.49c-.32,4.17-.81,16.06-.81,24.89Z" transform="translate(-150.25 -168.01)"></path><path class="cls-2" d="M612.82,324.17C612,312,605.27,303.45,595,303.45c-7.21,0-11.87,4.49-11.87,11.4,0,4.66,2.41,7.23,6.1,9.16,5,2.57,15.26,5.94,21.22,8.84C618.61,336.39,622,342,622,349.24c0,15.9-14.94,22.49-28.76,22.49a59.5,59.5,0,0,1-22.33-4.66c.15-3.69.47-14.46.15-23.46l4-.64a46.35,46.35,0,0,0,2.9,12.7c2.89,7.39,9.31,11.09,17.35,11.09,9,0,14.13-4.67,14.13-11.74,0-3.86-1.6-6.92-5.79-9-5.45-2.57-13.49-5.94-19.11-8.35-8-3.38-12.85-8.67-12.85-17.51,0-13.67,10.93-21.53,24.58-21.53,6.59,0,13.17,2.09,15.59,4.17l1.91-5.46,4.18,1.29a147.49,147.49,0,0,0-1,24.58Z" transform="translate(-150.25 -168.01)"></path><path class="cls-2" d="M641.34,412.71a3.45,3.45,0,1,1-3.44-3.36A3.37,3.37,0,0,1,641.34,412.71Zm-6,0a2.59,2.59,0,1,0,2.6-2.69A2.6,2.6,0,0,0,635.3,412.71Zm2.07,1.76h-.78v-3.36a6.85,6.85,0,0,1,1.29-.1,2.17,2.17,0,0,1,1.17.24,1,1,0,0,1,.32.74.85.85,0,0,1-.69.78v0a1,1,0,0,1,.61.82,2.36,2.36,0,0,0,.25.84h-.84a2.93,2.93,0,0,1-.27-.82c-.06-.37-.26-.53-.69-.53h-.37Zm0-1.91h.37c.43,0,.77-.14.77-.49s-.22-.51-.71-.51a1.86,1.86,0,0,0-.43,0Z" transform="translate(-150.25 -168.01)"></path></svg>