<svg width="923.3625" height="493.09998" xmlns="http://www.w3.org/2000/svg">
 <metadata id="metadata8">image/svg+xml</metadata>
 <defs>
  <clipPath clipPathUnits="userSpaceOnUse" id="clipPath16">
   <path d="m-48.800001,703.280003l841.89,0l0,-595.28l-841.89,0l0,595.28z" id="path18"/>
  </clipPath>
  <clipPath clipPathUnits="userSpaceOnUse" id="clipPath164">
   <path d="m-48.800001,703.280003l841.89,0l0,-595.28l-841.89,0l0,595.28z" id="path166"/>
  </clipPath>
  <linearGradient x1="0.000281" y1="0.518329" x2="1.000076" y2="0.518329" spreadMethod="pad" id="linearGradient138">
   <stop stop-color="#ed3541" offset="0" id="stop140"/>
   <stop stop-color="#ed3541" offset="0.2" id="stop142"/>
   <stop stop-color="#b82e90" offset="0.296552" id="stop144"/>
   <stop stop-color="#429cd4" offset="0.6" id="stop146"/>
   <stop stop-color="#429cd4" offset="0.675493" id="stop148"/>
   <stop stop-color="#5ac9dc" offset="0.694581" id="stop150"/>
   <stop stop-color="#5ac9dc" offset="0.744257" id="stop152"/>
   <stop stop-color="#2e943e" offset="0.8" id="stop154"/>
   <stop stop-color="#e4e01d" offset="1" id="stop156"/>
  </linearGradient>
 </defs>
 <g>
  <title>background</title>
  <rect fill="none" id="canvas_background" height="495.09998" width="925.3625" y="-1" x="-1"/>
 </g>
 <g>
  <title>Layer 1</title>
  <g id="g10" transform="matrix(1.25,0,0,-1.25,0,744.1) ">
   <g id="g12">
    <g id="g14" clip-path="url(#clipPath16)">
     <g id="g20">
      <path fill="#46436b" fill-rule="nonzero" d="m187.014498,459.281711l-43.633,-7.876c-1.476,8.722 -4.798,15.276 -10.004,19.698c-5.194,4.406 -11.95,6.608 -20.232,6.608c-11.043,0 -19.834,-3.806 -26.393,-11.417c-6.568,-7.612 -9.84,-20.35 -9.84,-38.199c0,-19.848 3.331,-33.864 9.995,-42.049c6.668,-8.2 15.619,-12.306 26.856,-12.306c8.408,0 15.283,2.398 20.64,7.171c5.352,4.775 9.136,13.003 11.342,24.658l43.48,-7.409c-4.527,-19.953 -13.188,-35.025 -26.002,-45.193c-12.809,-10.2 -29.987,-15.274 -51.5,-15.274c-24.478,0 -43.978,7.698 -58.522,23.131c-14.55,15.454 -21.813,36.808 -21.813,64.117c0,27.627 7.299,49.123 21.888,64.504c14.602,15.381 34.344,23.081 59.231,23.081c20.372,0 36.573,-4.388 48.593,-13.152c12.035,-8.775 20.664,-22.139 25.914,-40.093" id="path22"/>
     </g>
     <g id="g24">
      <path fill="#46436b" fill-rule="nonzero" d="m288.887987,421.805209c-5.682,-1.894 -14.655,-4.166 -26.948,-6.783c-12.281,-2.624 -20.319,-5.197 -24.09,-7.717c-5.775,-4.087 -8.66,-9.302 -8.66,-15.602c0,-6.193 2.308,-11.548 6.916,-16.06c4.629,-4.528 10.509,-6.765 17.655,-6.765c7.971,0 15.597,2.609 22.838,7.857c5.356,4.001 8.867,8.882 10.549,14.643c1.163,3.804 1.74,10.984 1.74,21.601l0,8.826zm-59.231,35.908l-40.163,7.242c4.507,16.175 12.289,28.138 23.315,35.916c11.016,7.762 27.406,11.656 49.131,11.656c19.747,0 34.445,-2.344 44.118,-7.013c9.66,-4.669 16.457,-10.606 20.39,-17.795c3.951,-7.198 5.911,-20.403 5.911,-39.625l-0.467,-51.651c0,-14.711 0.696,-25.555 2.119,-32.533c1.422,-6.977 4.07,-14.484 7.95,-22.448l-43.787,0c-1.155,2.925 -2.578,7.296 -4.247,13.074c-0.74,2.606 -1.264,4.351 -1.585,5.197c-7.563,-7.364 -15.642,-12.88 -24.248,-16.527c-8.612,-3.682 -17.805,-5.513 -27.57,-5.513c-17.222,0 -30.79,4.652 -40.718,14.007c-9.924,9.337 -14.889,21.159 -14.889,35.449c0,9.444 2.269,17.875 6.775,25.283c4.52,7.4 10.841,13.056 18.989,17.003c8.132,3.929 19.862,7.383 35.199,10.325c20.689,3.876 35.018,7.505 43.008,10.862l0,4.413c0,8.501 -2.105,14.572 -6.299,18.201c-4.206,3.612 -12.139,5.426 -23.794,5.426c-7.88,0 -14.021,-1.55 -18.429,-4.651c-4.41,-3.101 -7.982,-8.528 -10.709,-16.298" id="path26"/>
     </g>
     <path fill="#46436b" fill-rule="nonzero" d="m343.722999,572.379003l44.271,0l0,-230.917l-44.271,0l0,230.917z" id="path28"/>
     <path fill="#46436b" fill-rule="nonzero" d="m401.095999,572.379003l44.254,0l0,-230.917l-44.254,0l0,230.917z" id="path30"/>
     <path fill="#46436b" fill-rule="nonzero" d="m458.463999,508.748003l44.255,0l0,-167.286l-44.255,0l0,167.286zm0,63.631l44.255,0l0,-40.947l-44.255,0l0,40.947z" id="path32"/>
     <g id="g34">
      <path fill="#46436b" fill-rule="nonzero" d="m498.709826,341.461902l60.324,86.158l-57.808,81.128l54.029,0l29.613,-45.995l31.182,45.995l51.984,0l-56.715,-79.234l61.905,-88.052l-54.328,0l-34.028,51.827l-34.34,-51.827l-51.818,0z" id="path36"/>
     </g>
     <g id="g38">
      <path fill="#46436b" fill-rule="nonzero" d="m56.905596,251.006808l9.796,0l-1.15,7.452c-0.448,2.943 -0.726,5.391 -0.832,7.364c-0.669,-1.709 -1.651,-3.717 -2.942,-6.044l-4.872,-8.772zm-10.779,-11.56l16.774,29.62l4.673,0l4.886,-29.62l-3.842,0l-1.431,8.51l-11.976,0l-4.749,-8.51l-4.335,0z" id="path40"/>
     </g>
     <g id="g42">
      <path fill="#46436b" fill-rule="nonzero" d="m76.556002,239.447299l6.202,29.619l3.836,0l4.986,-11.136c1.52,-3.383 2.727,-6.255 3.616,-8.563c0.511,-1.339 1.11,-3.137 1.776,-5.444c0.365,2.502 0.819,5.056 1.374,7.716l3.638,17.427l3.846,0l-6.172,-29.619l-3.919,0l-7.348,17.091c-1.308,3.03 -2.325,5.692 -3.048,7.982c-0.207,-1.921 -0.595,-4.3 -1.172,-7.084l-3.761,-17.989l-3.854,0z" id="path44"/>
     </g>
     <g id="g46">
      <path fill="#46436b" fill-rule="nonzero" d="m107.310396,249.015597l3.88,0.352l-0.044,-1.005c0,-1.162 0.268,-2.219 0.789,-3.152c0.519,-0.954 1.395,-1.693 2.603,-2.204c1.211,-0.512 2.652,-0.774 4.329,-0.774c2.357,0 4.172,0.51 5.422,1.55c1.248,1.041 1.864,2.203 1.864,3.56c0,0.915 -0.33,1.777 -0.987,2.553c-0.674,0.741 -2.515,1.762 -5.51,3.067c-2.33,1.002 -3.929,1.778 -4.771,2.308c-1.33,0.88 -2.317,1.831 -2.95,2.853c-0.635,1.023 -0.943,2.219 -0.943,3.525c0,1.533 0.414,2.889 1.251,4.124c0.832,1.214 2.053,2.165 3.665,2.817c1.607,0.635 3.418,0.97 5.448,0.97c2.396,0 4.427,-0.406 6.092,-1.217c1.661,-0.81 2.854,-1.885 3.599,-3.223c0.758,-1.357 1.114,-2.645 1.114,-3.859c0,-0.125 0,-0.318 -0.009,-0.617l-3.818,-0.301c0,0.829 -0.071,1.5 -0.23,1.975c-0.259,0.81 -0.678,1.514 -1.237,2.062c-0.564,0.564 -1.352,1.021 -2.348,1.357c-0.982,0.352 -2.087,0.528 -3.313,0.528c-2.149,0 -3.836,-0.492 -5.034,-1.464c-0.911,-0.739 -1.366,-1.709 -1.366,-2.94c0,-0.725 0.19,-1.375 0.568,-1.956c0.375,-0.581 1.049,-1.127 2.04,-1.675c0.696,-0.388 2.361,-1.181 4.978,-2.326c2.127,-0.934 3.589,-1.691 4.409,-2.237c1.074,-0.704 1.907,-1.568 2.484,-2.573c0.568,-1.022 0.858,-2.185 0.858,-3.471c0,-1.586 -0.488,-3.083 -1.462,-4.439c-0.978,-1.356 -2.321,-2.38 -4.043,-3.137c-1.718,-0.739 -3.7,-1.127 -5.916,-1.127c-3.348,0 -6.087,0.74 -8.21,2.219c-2.119,1.445 -3.185,4.072 -3.202,7.877" id="path48"/>
     </g>
     <g id="g50">
      <path fill="#46436b" fill-rule="nonzero" d="m138.980303,239.447299l-1.819,29.619l4.007,0l0.688,-14.66c0.049,-0.686 0.119,-2.606 0.22,-5.707c0.018,-0.829 0.027,-1.446 0.027,-1.798c0,-0.229 0,-0.916 -0.018,-2.01c1.643,3.367 2.828,5.745 3.563,7.119l9.004,17.056l4.083,0l0.982,-17.32c0.102,-1.991 0.181,-4.37 0.221,-7.153c0.246,0.686 0.665,1.708 1.295,3.066c0.982,2.203 1.709,3.768 2.176,4.704l8.439,16.703l4.044,0l-15.069,-29.619l-4.229,0l-1.003,17.937c-0.093,1.533 -0.16,3.417 -0.221,5.639c-0.815,-1.869 -1.51,-3.312 -2.048,-4.353l-10.263,-19.223l-4.079,0z" id="path52"/>
     </g>
     <g id="g54">
      <path fill="#46436b" fill-rule="nonzero" d="m172.883104,239.447299l6.202,29.619l21.363,0l-0.705,-3.384l-17.402,0l-1.943,-9.198l16.959,0l-0.697,-3.381l-16.98,0l-2.136,-10.307l18.645,0l-0.705,-3.349l-22.601,0z" id="path56"/>
     </g>
     <g id="g58">
      <path fill="#46436b" fill-rule="nonzero" d="m207.923601,255.7988l5.476,0c2.528,0 4.18,0.018 4.946,0.104c1.488,0.143 2.714,0.477 3.669,1.023c0.965,0.511 1.691,1.234 2.229,2.097c0.519,0.899 0.789,1.85 0.789,2.871c0,0.882 -0.198,1.604 -0.586,2.257c-0.392,0.65 -0.917,1.073 -1.546,1.302c-0.635,0.23 -1.71,0.335 -3.225,0.335l-9.651,0l-2.101,-9.989zm-7.374,-16.352l6.202,29.62l12.418,0c2.449,0 4.308,-0.23 5.572,-0.617c1.264,-0.423 2.259,-1.199 2.986,-2.343c0.718,-1.113 1.075,-2.537 1.075,-4.264c0,-2.415 -0.784,-4.422 -2.37,-5.99c-1.572,-1.605 -4.109,-2.645 -7.62,-3.102c1.075,-0.793 1.889,-1.568 2.436,-2.344c1.246,-1.725 2.242,-3.542 2.995,-5.39l2.251,-5.57l-4.419,0l-2.118,5.516c-0.78,1.992 -1.634,3.719 -2.63,5.162c-0.678,1.023 -1.352,1.675 -2.061,1.991c-0.696,0.317 -1.828,0.475 -3.401,0.475l-4.616,0l-2.74,-13.144l-3.96,0z" id="path60"/>
     </g>
     <g id="g62">
      <path fill="#46436b" fill-rule="nonzero" d="m230.842089,239.447299l6.202,29.619l3.937,0l-6.179,-29.619l-3.96,0z" id="path64"/>
     </g>
     <g id="g66">
      <path fill="#46436b" fill-rule="nonzero" d="m241.990496,239.447299l6.197,29.619l3.841,0l4.978,-11.136c1.532,-3.383 2.727,-6.255 3.621,-8.563c0.519,-1.339 1.105,-3.137 1.783,-5.444c0.358,2.502 0.825,5.056 1.361,7.716l3.644,17.427l3.863,0l-6.18,-29.619l-3.925,0l-7.351,17.091c-1.305,3.03 -2.331,5.692 -3.045,7.982c-0.203,-1.921 -0.59,-4.3 -1.176,-7.084l-3.753,-17.989l-3.858,0z" id="path68"/>
     </g>
     <g id="g70">
      <path fill="#46436b" fill-rule="nonzero" d="m286.782488,251.1113l0.705,3.366l12.967,0l-2.528,-12.069c-1.634,-1.023 -3.484,-1.852 -5.563,-2.485c-2.092,-0.652 -4.149,-1.003 -6.171,-1.003c-4.307,0 -7.523,1.32 -9.651,3.929c-1.784,2.167 -2.687,5.021 -2.687,8.456c0,3.542 0.775,6.766 2.357,9.708c1.564,2.908 3.542,5.057 5.933,6.45c2.396,1.392 5.044,2.096 7.96,2.096c2.109,0 3.999,-0.387 5.663,-1.163c1.67,-0.758 2.943,-1.763 3.829,-3.012c0.899,-1.305 1.533,-2.96 1.92,-5.005l-3.867,-0.423c-0.419,2.045 -1.286,3.594 -2.599,4.686c-1.313,1.076 -3.004,1.622 -5.057,1.622c-2.136,0 -4.148,-0.582 -5.999,-1.744c-1.863,-1.18 -3.335,-2.943 -4.458,-5.268c-1.106,-2.362 -1.665,-5.022 -1.665,-8c0,-2.995 0.726,-5.233 2.211,-6.748c1.463,-1.533 3.493,-2.29 6.071,-2.29c2.567,0 5.342,0.846 8.298,2.538l1.334,6.359l-9.003,0z" id="path72"/>
     </g>
     <g id="g74">
      <path fill="#46436b" fill-rule="nonzero" d="m324.306902,239.447299l2.379,11.435l-9.113,18.184l4.246,0l4.361,-8.67c0.955,-1.866 1.888,-3.893 2.783,-6.044c0.996,1.834 2.361,3.825 4.083,5.991l6.946,8.723l4.727,0l-14.131,-18.482l-2.322,-11.137l-3.959,0z" id="path76"/>
     </g>
     <g id="g78">
      <path fill="#46436b" fill-rule="nonzero" d="m348.013994,251.639606c0,-1.727 0.356,-3.346 1.084,-4.792c0.717,-1.443 1.779,-2.591 3.214,-3.399c1.433,-0.847 2.925,-1.235 4.507,-1.235c1.515,0 2.964,0.353 4.347,1.074c1.366,0.743 2.59,1.729 3.682,3.014c1.076,1.286 1.943,2.854 2.56,4.738c0.616,1.887 0.934,3.737 0.934,5.535c0,2.96 -0.824,5.319 -2.466,7.063c-1.652,1.763 -3.692,2.627 -6.11,2.627c-3.097,0 -5.832,-1.321 -8.202,-3.966c-2.366,-2.659 -3.55,-6.201 -3.55,-10.659m-3.903,0.212c0,5.268 1.524,9.55 4.577,12.809c3.047,3.259 6.747,4.899 11.095,4.899c3.682,0 6.69,-1.217 9.017,-3.611c2.321,-2.398 3.476,-5.621 3.476,-9.675c0,-2.854 -0.578,-5.55 -1.754,-8.016c-0.876,-1.833 -1.969,-3.419 -3.312,-4.758c-1.334,-1.357 -2.749,-2.377 -4.268,-3.119c-2.022,-0.951 -4.163,-1.461 -6.431,-1.461c-2.37,0 -4.519,0.581 -6.466,1.726c-1.952,1.128 -3.428,2.696 -4.424,4.723c-1.012,2.042 -1.51,4.193 -1.51,6.483" id="path80"/>
     </g>
     <g id="g82">
      <path fill="#46436b" fill-rule="nonzero" d="m380.702013,269.066409l3.951,0l-3.789,-18.22c-0.299,-1.497 -0.471,-2.624 -0.471,-3.345c0,-1.587 0.639,-2.857 1.894,-3.843c1.251,-0.97 2.814,-1.445 4.727,-1.445c1.501,0 2.903,0.335 4.197,1.041c1.296,0.686 2.33,1.727 3.088,3.047c0.754,1.358 1.432,3.507 2.039,6.432l3.401,16.333l3.964,0l-3.615,-17.392c-0.617,-2.96 -1.432,-5.301 -2.446,-7.03c-1.008,-1.744 -2.4,-3.118 -4.202,-4.175c-1.779,-1.022 -3.858,-1.568 -6.227,-1.568c-2.251,0 -4.172,0.388 -5.803,1.145c-1.643,0.705 -2.866,1.745 -3.682,3.03c-0.814,1.323 -1.224,2.803 -1.224,4.475c0,1.023 0.277,2.803 0.837,5.34l3.361,16.175z" id="path84"/>
     </g>
     <g id="g86">
      <path fill="#46436b" fill-rule="nonzero" d="m411.670702,255.7988l5.485,0c2.529,0 4.18,0.018 4.947,0.104c1.503,0.143 2.717,0.477 3.673,1.023c0.952,0.511 1.701,1.234 2.229,2.097c0.524,0.899 0.784,1.85 0.784,2.871c0,0.882 -0.198,1.604 -0.586,2.257c-0.401,0.65 -0.894,1.073 -1.542,1.302c-0.63,0.23 -1.704,0.335 -3.224,0.335l-9.655,0l-2.111,-9.989zm-7.364,-16.352l6.202,29.62l12.417,0c2.458,0 4.312,-0.23 5.577,-0.617c1.264,-0.423 2.269,-1.199 2.981,-2.343c0.728,-1.113 1.076,-2.537 1.076,-4.264c0,-2.415 -0.785,-4.422 -2.357,-5.99c-1.572,-1.605 -4.118,-2.645 -7.634,-3.102c1.076,-0.793 1.881,-1.568 2.441,-2.344c1.242,-1.725 2.228,-3.542 2.995,-5.39l2.246,-5.57l-4.409,0l-2.128,5.516c-0.766,1.992 -1.643,3.719 -2.616,5.162c-0.678,1.023 -1.365,1.675 -2.071,1.991c-0.695,0.317 -1.839,0.475 -3.413,0.475l-4.598,0l-2.743,-13.144l-3.966,0z" id="path88"/>
     </g>
     <g id="g90">
      <path fill="#46436b" fill-rule="nonzero" d="m468.665819,249.862308l3.919,-0.549c-1.232,-3.417 -3.043,-5.99 -5.404,-7.734c-2.378,-1.78 -5.035,-2.659 -7.991,-2.659c-3.588,0 -6.439,1.127 -8.548,3.312c-2.107,2.185 -3.163,5.337 -3.163,9.425c0,5.34 1.612,9.762 4.819,13.25c2.853,3.101 6.395,4.652 10.637,4.652c3.145,0 5.681,-0.846 7.62,-2.538c1.951,-1.69 3.075,-3.93 3.382,-6.783l-3.691,-0.334c-0.388,2.132 -1.202,3.733 -2.409,4.792c-1.22,1.058 -2.792,1.568 -4.726,1.568c-3.612,0 -6.545,-1.604 -8.775,-4.809c-1.942,-2.785 -2.916,-6.062 -2.916,-9.866c0,-3.05 0.754,-5.359 2.239,-6.978c1.501,-1.604 3.452,-2.397 5.849,-2.397c2.044,0 3.893,0.653 5.546,1.992c1.66,1.356 2.867,3.223 3.612,5.656" id="path92"/>
     </g>
     <g id="g94">
      <path fill="#46436b" fill-rule="nonzero" d="m483.553514,251.006808l9.791,0l-1.153,7.452c-0.441,2.943 -0.709,5.391 -0.815,7.364c-0.678,-1.709 -1.665,-3.717 -2.956,-6.044l-4.867,-8.772zm-10.779,-11.56l16.779,29.62l4.66,0l4.894,-29.62l-3.842,0l-1.432,8.51l-11.971,0l-4.748,-8.51l-4.34,0z" id="path96"/>
     </g>
     <g id="g98">
      <path fill="#46436b" fill-rule="nonzero" d="m502.836718,239.447299l6.181,29.619l3.96,0l-5.471,-26.27l15.364,0l-0.705,-3.349l-19.329,0z" id="path100"/>
     </g>
     <g id="g102">
      <path fill="#46436b" fill-rule="nonzero" d="m525.834826,239.447299l6.193,29.619l3.952,0l-5.476,-26.27l15.378,0l-0.71,-3.349l-19.337,0z" id="path104"/>
     </g>
     <g id="g106">
      <path fill="#46436b" fill-rule="nonzero" d="m550.100389,249.015597l3.881,0.352l-0.053,-1.005c0,-1.162 0.26,-2.219 0.798,-3.152c0.52,-0.954 1.392,-1.693 2.599,-2.204c1.211,-0.512 2.655,-0.774 4.316,-0.774c2.379,0 4.18,0.51 5.427,1.55c1.243,1.041 1.868,2.203 1.868,3.56c0,0.915 -0.327,1.777 -0.996,2.553c-0.665,0.741 -2.506,1.762 -5.511,3.067c-2.33,1.002 -3.911,1.778 -4.757,2.308c-1.334,0.88 -2.321,1.831 -2.946,2.853c-0.64,1.023 -0.957,2.219 -0.957,3.525c0,1.533 0.419,2.889 1.256,4.124c0.838,1.214 2.061,2.165 3.673,2.817c1.599,0.635 3.41,0.97 5.431,0.97c2.419,0 4.449,-0.406 6.102,-1.217c1.65,-0.81 2.845,-1.885 3.602,-3.223c0.746,-1.357 1.123,-2.645 1.123,-3.859c0,-0.125 -0.017,-0.318 -0.03,-0.617l-3.81,-0.301c0,0.829 -0.071,1.5 -0.22,1.975c-0.269,0.81 -0.688,1.514 -1.251,2.062c-0.568,0.564 -1.344,1.021 -2.33,1.357c-0.996,0.352 -2.102,0.528 -3.326,0.528c-2.159,0 -3.827,-0.492 -5.035,-1.464c-0.903,-0.739 -1.375,-1.709 -1.375,-2.94c0,-0.725 0.204,-1.375 0.569,-1.956c0.379,-0.581 1.066,-1.127 2.039,-1.675c0.701,-0.388 2.361,-1.181 5,-2.326c2.128,-0.934 3.589,-1.691 4.395,-2.237c1.076,-0.704 1.912,-1.568 2.489,-2.573c0.578,-1.022 0.864,-2.185 0.864,-3.471c0,-1.586 -0.484,-3.083 -1.462,-4.439c-0.982,-1.356 -2.317,-2.38 -4.049,-3.137c-1.722,-0.739 -3.691,-1.127 -5.91,-1.127c-3.366,0 -6.093,0.74 -8.221,2.219c-2.109,1.445 -3.183,4.072 -3.193,7.877" id="path108"/>
     </g>
     <g id="g110">
      <path fill="#46436b" fill-rule="nonzero" d="m588.682421,239.447299c0.38,1.763 0.903,3.241 1.572,4.44c0.657,1.181 1.551,2.326 2.657,3.384c1.091,1.073 3.223,2.854 6.382,5.373c1.903,1.532 3.207,2.644 3.912,3.384c1.003,1.056 1.762,2.061 2.202,3.083c0.318,0.687 0.458,1.426 0.458,2.236c0,1.357 -0.476,2.52 -1.427,3.471c-0.969,0.954 -2.15,1.428 -3.541,1.428c-1.402,0 -2.609,-0.492 -3.648,-1.445c-1.035,-0.952 -1.771,-2.502 -2.219,-4.634l-3.581,0.512c0.356,2.624 1.374,4.705 3.065,6.22c1.691,1.497 3.801,2.273 6.312,2.273c1.674,0 3.198,-0.353 4.572,-1.041c1.366,-0.705 2.388,-1.691 3.074,-2.976c0.688,-1.252 1.04,-2.556 1.04,-3.895c0,-1.973 -0.704,-3.858 -2.097,-5.691c-0.872,-1.127 -3.4,-3.349 -7.611,-6.677c-1.788,-1.427 -3.132,-2.591 -4.018,-3.523c-0.884,-0.883 -1.541,-1.763 -1.991,-2.573l13.25,0l-0.705,-3.349l-17.658,0z" id="path112"/>
     </g>
     <g id="g114">
      <path fill="#46436b" fill-rule="nonzero" d="m623.880724,250.231402l2.6,12.368l-11.038,-12.368l8.438,0zm-2.245,-10.784l1.575,7.558l-12.059,0l0.757,3.596l16.589,18.465l2.986,0l-3.947,-18.835l4.158,0l-0.66,-3.226l-4.158,0l-1.595,-7.558l-3.646,0z" id="path116"/>
     </g>
     <g id="g118">
      <path fill="#46436b" fill-rule="nonzero" d="m630.171679,238.972705l15.901,30.587l3.171,0l-15.91,-30.587l-3.162,0z" id="path120"/>
     </g>
     <g id="g122">
      <path fill="#46436b" fill-rule="nonzero" d="m649.764513,239.447299c0.316,1.992 1.003,4.389 2.052,7.188c1.252,3.385 2.906,6.731 4.933,10.061c2.026,3.33 4.29,6.185 6.784,8.599l-14.765,0l0.704,3.348l18.906,0l-0.687,-3.348c-3.198,-2.821 -6.008,-6.45 -8.406,-10.889c-2.783,-5.126 -4.694,-10.113 -5.708,-14.959l-3.813,0z" id="path124"/>
     </g>
    </g>
   </g>
   <g id="g126">
    <g id="g128">
     <g id="g134">
      <g id="g136">
       <path fill="url(#linearGradient138)" d="m51.773999,293.204003l627.264,0l0,16.546l-627.264,0l0,-16.546z" id="path158"/>
      </g>
     </g>
    </g>
   </g>
   <g id="g160">
    <g id="g162" clip-path="url(#clipPath164)">
     <g id="g168">
      <path fill="#46436b" fill-rule="nonzero" d="m691.176622,505.619601l1.534,0c2.194,0 3.541,0.089 4.07,0.248c0.528,0.175 0.951,0.466 1.25,0.88c0.317,0.423 0.467,0.899 0.467,1.445c0,0.52 -0.15,0.978 -0.458,1.392c-0.29,0.396 -0.714,0.687 -1.259,0.863c-0.556,0.176 -1.904,0.265 -4.07,0.265l-1.534,0l0,-5.093zm-3.787,-10.606l0,18.658l3.787,0c3.542,0 5.534,-0.017 5.965,-0.052c1.26,-0.106 2.228,-0.353 2.916,-0.74c0.696,-0.388 1.295,-0.987 1.753,-1.789c0.467,-0.802 0.705,-1.691 0.705,-2.669c0,-1.357 -0.45,-2.502 -1.322,-3.453c-0.89,-0.952 -2.123,-1.551 -3.708,-1.78c0.573,-0.22 1.003,-0.458 1.303,-0.704c0.3,-0.248 0.731,-0.723 1.269,-1.427c0.141,-0.186 0.59,-0.943 1.375,-2.273l2.201,-3.771l-4.678,0l-1.559,3.03c-1.057,2.044 -1.92,3.321 -2.608,3.842c-0.687,0.528 -1.567,0.793 -2.625,0.793l-0.987,0l0,-7.665l-3.787,0zm7.964,23.548c-2.414,0 -4.723,-0.609 -6.943,-1.815c-2.219,-1.207 -3.981,-2.942 -5.25,-5.207c-1.287,-2.255 -1.921,-4.633 -1.921,-7.117c0,-2.468 0.618,-4.811 1.869,-7.04c1.251,-2.228 2.995,-3.973 5.214,-5.223c2.239,-1.26 4.582,-1.886 7.031,-1.886c2.458,0 4.809,0.626 7.03,1.886c2.22,1.25 3.964,2.995 5.215,5.223c1.251,2.229 1.886,4.572 1.886,7.04c0,2.484 -0.635,4.862 -1.912,7.117c-1.278,2.265 -3.022,4 -5.259,5.207c-2.222,1.206 -4.547,1.815 -6.96,1.815m-0.035,3.435c3.029,0 5.92,-0.749 8.685,-2.254c2.767,-1.507 4.943,-3.674 6.52,-6.476c1.586,-2.819 2.378,-5.761 2.378,-8.844c0,-3.049 -0.776,-5.974 -2.327,-8.757c-1.549,-2.767 -3.707,-4.934 -6.5,-6.484c-2.766,-1.55 -5.691,-2.326 -8.756,-2.326c-3.04,0 -5.973,0.776 -8.74,2.326c-2.783,1.55 -4.942,3.717 -6.492,6.484c-1.551,2.783 -2.335,5.708 -2.335,8.757c0,3.083 0.793,6.025 2.378,8.844c1.586,2.802 3.754,4.969 6.52,6.476c2.766,1.505 5.673,2.254 8.669,2.254" id="path170"/>
     </g>
    </g>
   </g>
  </g>
 </g>
</svg>